<svg width="1024" height="1024" viewBox="0 0 1024 1024" fill="none" xmlns="http://www.w3.org/2000/svg">
<path d="M465.432 511.061C465.091 514.95 461.953 518.098 458.071 518.513C410.748 523.562 374.345 570.15 374.345 626.863C374.345 686.946 416.012 735.653 467.413 735.653H822.224C878.695 735.653 924.473 684.18 924.473 620.685C924.473 559.824 882.414 510.008 829.194 505.981C825.141 505.673 821.852 502.823 821.075 498.833C809.189 437.801 754.36 391.938 689.538 391.938C647.394 391.938 609.854 411.025 585.485 441.385C583.117 444.334 579.156 445.69 575.67 444.224C566.276 440.276 556.356 438.365 545.252 438.365C503.374 438.365 469.001 470.324 465.432 511.061Z" fill="#1A1A1A" stroke="#1A1A1A" stroke-width="10" stroke-miterlimit="10" stroke-linecap="round" stroke-linejoin="round"/>
<path d="M190.087 407.123C189.746 411.012 186.609 414.16 182.727 414.574C135.404 419.624 99 466.212 99 522.925C99 583.008 140.668 631.715 192.068 631.715H546.88C603.35 631.715 649.128 580.242 649.128 516.747C649.128 455.885 607.069 406.069 553.85 402.043C549.796 401.735 546.507 398.885 545.731 394.895C533.844 333.863 479.016 288 414.193 288C372.05 288 334.509 307.087 310.14 337.446C307.773 340.396 303.811 341.752 300.325 340.286C290.932 336.338 281.011 334.427 269.907 334.427C228.03 334.427 193.656 366.386 190.087 407.123Z" stroke="#1A1A1A" stroke-width="10" stroke-miterlimit="10" stroke-linecap="round" stroke-linejoin="round"/>
</svg>
